<svg version="1.1" id="Layer_1" xmlns="http://www.w3.org/2000/svg" xmlns:xlink="http://www.w3.org/1999/xlink" x="0px" y="0px"
	 width="100%" viewBox="0 0 1024 672" enable-background="new 0 0 1024 672" xml:space="preserve">
<path fill="#000000" opacity="1.000000" stroke="none" 
	d="
M348.307678,354.000061 
	C348.311371,366.661896 347.879639,378.842682 348.408234,390.981628 
	C349.541504,417.007141 331.864777,435.791290 305.246460,435.893402 
	C268.095520,436.035919 230.943283,435.997559 193.792267,435.859161 
	C184.695480,435.825256 175.857819,434.048248 168.189484,428.717346 
	C156.926865,420.887726 150.658737,410.262756 150.656967,396.303650 
	C150.652466,360.484619 150.635330,324.665558 150.665405,288.846558 
	C150.685028,265.490021 167.881302,248.077133 191.283096,248.002899 
	C229.933945,247.880280 268.585632,247.892990 307.236603,247.985947 
	C331.167755,248.043503 348.316986,265.509888 348.314789,289.525360 
	C348.312866,310.850250 348.309937,332.175171 348.307678,354.000061 
M268.848053,284.631866 
	C275.566681,291.576233 282.351135,298.458344 288.988983,305.479095 
	C299.715881,316.824677 303.594757,330.752930 302.880280,345.890778 
	C302.156677,361.221558 296.219055,374.551208 285.483643,385.741180 
	C278.634888,392.879944 271.444458,399.830292 262.719177,404.256531 
	C255.031570,408.156372 253.638199,413.575470 254.178833,421.117493 
	C254.451050,424.914978 255.779175,425.937622 259.294983,425.911835 
	C275.456665,425.793427 291.621033,425.974487 307.781799,425.802032 
	C325.525696,425.612732 338.585632,412.374603 338.626099,394.564117 
	C338.705627,359.573151 338.698944,324.581787 338.629730,289.590759 
	C338.592987,271.000824 326.071472,257.626129 307.557983,257.464264 
	C268.904144,257.126373 230.243835,257.154602 191.589218,257.441589 
	C173.264389,257.577606 160.400558,270.569366 160.347198,288.273712 
	C160.239227,324.097626 160.226837,359.922455 160.361633,395.746216 
	C160.426254,412.917572 173.287262,425.644318 190.494415,425.816925 
	C204.656097,425.959045 218.821106,425.957306 232.983017,425.833588 
	C246.722412,425.713562 244.640625,428.005524 244.878357,413.433990 
	C244.923798,410.648773 244.109344,408.809601 241.489166,407.435089 
	C230.300186,401.565491 220.867737,393.440765 212.247833,384.277649 
	C192.891785,363.701691 189.953720,325.902649 210.915771,304.524384 
	C222.929565,292.272095 234.853806,279.931396 246.743744,267.558746 
	C248.824814,265.393188 250.347229,265.254547 252.462753,267.545105 
	C257.661377,273.173920 263.053101,278.624420 268.848053,284.631866 
M244.858566,361.241394 
	C244.855286,360.244232 244.697449,359.219147 244.871964,358.254150 
	C247.431076,344.101990 242.402374,333.303314 230.988876,324.778900 
	C226.155457,321.168976 222.205383,316.376343 217.722382,311.992737 
	C212.337708,317.002747 209.655167,322.776855 207.726593,329.033844 
	C206.780930,332.101990 207.536682,334.311920 209.915283,336.532532 
	C220.117737,346.057404 230.144699,355.770050 240.286118,365.360840 
	C241.386978,366.401886 242.241028,368.185455 244.859497,367.443176 
	C244.859497,365.733246 244.859497,363.939697 244.858566,361.241394 
M263.578369,330.078979 
	C260.587616,333.596039 255.135757,335.917084 254.707031,340.516479 
	C253.841232,349.805176 254.448975,359.231232 254.448975,369.945038 
	C267.231171,357.625153 278.960876,346.318268 290.693695,335.014648 
	C291.455414,334.280762 291.939972,333.387543 291.809570,332.347473 
	C290.833954,324.566254 287.753632,317.853302 281.455414,311.723877 
	C275.427612,317.918030 269.753418,323.748810 263.578369,330.078979 
M210.547272,363.902832 
	C217.638123,379.073120 229.783325,389.113464 244.235565,398.277435 
	C245.233154,389.684174 245.843826,383.078644 238.994537,377.303864 
	C229.352203,369.174286 220.681885,359.894989 211.533417,351.172882 
	C210.227554,349.927887 209.181488,348.052429 206.693619,347.984039 
	C207.087234,353.472565 208.180954,358.446106 210.547272,363.902832 
M278.581421,360.088837 
	C272.548798,365.829132 266.933136,372.110352 260.373383,377.166809 
	C252.907745,382.921509 254.073929,390.094604 254.684891,397.807800 
	C275.069305,388.098907 295.849854,360.250641 291.196838,348.454834 
	C286.567749,351.670868 283.139008,355.996307 278.581421,360.088837 
M254.319382,307.492554 
	C254.319382,313.209076 254.319382,318.925629 254.319382,324.642151 
	C254.913544,324.977539 255.507706,325.312897 256.101868,325.648254 
	C259.617950,321.702179 262.980774,317.605499 266.680603,313.839966 
	C275.577728,304.784851 275.648865,304.840149 266.855225,295.888031 
	C263.116333,292.081757 259.338959,288.313293 255.579071,284.527649 
	C255.159195,284.769714 254.739304,285.011810 254.319427,285.253876 
	C254.319427,292.334412 254.319427,299.414978 254.319382,307.492554 
M238.247131,319.240295 
	C240.104126,320.792175 241.382797,323.110046 244.334625,323.800140 
	C244.334625,310.575104 244.334625,297.544922 244.334625,285.906525 
	C238.626816,291.071808 232.478226,296.655884 226.304398,302.211945 
	C224.214050,304.093140 225.080704,305.560883 226.701416,307.203156 
	C230.440582,310.992035 234.071167,314.888092 238.247131,319.240295 
z"/>
<path fill="#000000" opacity="1.000000" stroke="none" 
	d="
M450.366882,310.010193 
	C461.732880,309.869232 470.843414,313.518341 476.272888,323.474976 
	C481.428009,332.928528 481.245880,342.582031 475.714661,351.948608 
	C469.920105,361.761108 457.737549,366.448242 446.243317,363.369080 
	C434.529480,360.231110 426.779388,350.475861 426.651337,338.708191 
	C426.475708,322.563232 433.942078,313.371918 450.366882,310.010193 
M465.433075,348.885284 
	C467.239868,346.656158 468.443207,344.127899 469.167847,341.361237 
	C472.091156,330.199982 462.437897,317.990295 451.862152,319.473663 
	C443.883118,320.592804 438.700165,325.740631 437.102875,334.132935 
	C435.684784,341.583710 439.149994,349.435608 445.363953,352.852081 
	C451.651215,356.308868 458.612335,355.090118 465.433075,348.885284 
z"/>
<path fill="#000000" opacity="1.000000" stroke="none" 
	d="
M815.527100,359.778381 
	C806.420898,364.360321 796.984741,362.998627 787.718872,363.086761 
	C785.325439,363.109497 784.669861,361.546967 784.672119,359.440125 
	C784.687927,344.781830 784.714783,330.123413 784.658264,315.465332 
	C784.647522,312.687500 785.819580,311.578888 788.543457,311.634460 
	C792.872498,311.722748 797.205078,311.683350 801.535583,311.643585 
	C807.934509,311.584839 814.082703,312.336365 817.444946,318.736664 
	C820.708740,324.949524 819.295654,330.669434 814.013062,335.998474 
	C819.208862,339.825256 822.245605,344.510010 821.289429,350.974915 
	C820.741699,354.678558 818.835449,357.447723 815.527100,359.778381 
M794.986694,346.587769 
	C795.099121,353.813416 795.528931,354.205322 802.737366,353.606323 
	C803.397766,353.551453 804.074646,353.510834 804.706787,353.332245 
	C808.096680,352.374298 811.352234,350.974915 810.598206,346.670074 
	C809.691467,341.493164 805.375549,341.374908 801.284912,341.184357 
	C797.981689,341.030518 794.626404,340.754852 794.986694,346.587769 
M803.830444,331.740082 
	C806.527222,331.229309 808.339233,329.803711 808.732727,326.947296 
	C809.026794,324.812988 808.474854,322.954041 806.571899,321.799652 
	C803.404358,319.878174 799.722778,319.549469 796.588135,320.968475 
	C793.759155,322.249207 794.939758,325.689270 795.078979,328.166687 
	C795.407349,334.008423 800.010254,331.313080 803.830444,331.740082 
z"/>
<path fill="#000000" opacity="1.000000" stroke="none" 
	d="
M653.130005,337.035339 
	C652.479858,352.224304 644.997681,360.406708 630.519165,362.571442 
	C624.865417,363.416748 619.223755,363.026764 613.574158,363.141357 
	C610.856567,363.196472 609.679688,361.902161 609.687256,359.191132 
	C609.728210,344.537079 609.732239,329.882751 609.694397,315.228699 
	C609.687805,312.675842 610.824402,311.633301 613.318542,311.666229 
	C619.478027,311.747620 625.681885,311.291809 631.789551,311.873993 
	C644.531677,313.088562 652.185120,322.232819 653.130005,337.035339 
M638.531006,349.031525 
	C643.721863,342.893219 644.192688,335.943451 641.017700,328.990021 
	C637.884766,322.128693 631.339294,321.121704 624.584473,320.960083 
	C621.427490,320.884583 620.026367,322.137024 620.082092,325.345093 
	C620.183044,331.156860 620.109619,336.971649 620.108948,342.785156 
	C620.107666,354.435486 623.037170,356.340302 634.183899,351.831482 
	C635.541382,351.282410 636.730896,350.317932 638.531006,349.031525 
z"/>
<path fill="#000000" opacity="1.000000" stroke="none" 
	d="
M505.676544,349.349304 
	C504.726501,347.962219 504.000885,346.842865 503.179901,345.798584 
	C502.079102,344.398315 500.521637,344.564880 499.040741,344.853760 
	C497.262146,345.200745 497.393311,346.716034 497.377136,348.029572 
	C497.329956,351.857422 497.240875,355.688354 497.342926,359.513397 
	C497.433228,362.898071 495.361969,363.232544 492.773712,363.153961 
	C490.148651,363.074310 486.987244,363.733643 486.969635,359.647339 
	C486.905884,344.834503 486.947815,330.021179 486.958344,315.208038 
	C486.960114,312.740265 488.202789,311.626953 490.689941,311.656677 
	C496.847260,311.730225 503.024841,311.418854 509.158630,311.814758 
	C516.604065,312.295319 522.190979,317.421509 523.950073,324.619446 
	C525.588257,331.322510 522.785095,338.062225 516.626587,342.261475 
	C515.953369,342.720520 515.322876,343.242218 514.255920,344.050537 
	C517.897461,349.992981 521.487305,355.851074 525.129089,361.793945 
	C517.881836,364.623077 514.997559,363.734802 511.308746,358.017273 
	C509.504303,355.220398 507.676025,352.438904 505.676544,349.349304 
M497.355347,331.152374 
	C497.450806,332.603760 497.119873,334.182098 498.650269,335.184174 
	C501.561127,337.090210 510.952209,335.205109 512.955872,332.301056 
	C515.381592,328.785278 514.201355,324.058807 510.429596,322.184143 
	C502.854736,318.419250 497.354706,321.611237 497.351868,329.773926 
	C497.351807,329.939514 497.351959,330.105103 497.355347,331.152374 
z"/>
<path fill="#000000" opacity="1.000000" stroke="none" 
	d="
M388.355743,312.638367 
	C389.704132,317.783600 389.037476,322.629913 389.097015,327.441284 
	C389.136353,330.619385 390.349945,331.767883 393.529572,331.944977 
	C408.789551,332.794952 408.785461,332.868500 409.094269,317.495758 
	C409.202057,312.129852 412.588837,309.929626 417.561829,311.853790 
	C419.473938,312.593597 419.303284,314.117645 419.306824,315.548950 
	C419.342773,330.044739 419.289886,344.540833 419.366302,359.036316 
	C419.381927,362.003326 418.288940,363.329163 415.254730,363.163605 
	C412.442596,363.010132 409.213806,363.663727 409.153687,359.322998 
	C409.089142,354.659180 408.973114,349.986176 409.191071,345.331818 
	C409.336456,342.228058 408.178894,341.164398 405.163971,341.298065 
	C401.339508,341.467682 397.493286,341.481842 393.671478,341.279114 
	C390.103088,341.089752 388.971497,342.687927 389.095062,346.037964 
	C389.254578,350.363647 389.026123,354.702515 389.131805,359.031616 
	C389.226349,362.904175 386.825012,363.172943 383.873260,363.190979 
	C381.019623,363.208435 378.893372,362.691833 378.899658,359.221344 
	C378.925934,344.725769 378.832520,330.229095 378.991394,315.735107 
	C379.039307,311.364288 380.787964,310.822235 388.355743,312.638367 
z"/>
<path fill="#000000" opacity="1.000000" stroke="none" 
	d="
M833.878296,333.962524 
	C836.303406,327.360443 838.730286,321.169434 840.826477,314.868439 
	C842.178894,310.803223 845.351562,311.738342 848.205811,311.667908 
	C850.832153,311.603088 853.536743,311.204742 854.778931,314.634399 
	C860.207764,329.623291 865.756531,344.568695 871.230530,359.541290 
	C871.560303,360.443207 871.986694,361.424713 871.401367,362.420410 
	C863.470093,364.500549 862.113159,363.959625 859.601440,356.578857 
	C858.463989,353.236450 856.725464,351.535736 853.116272,351.901215 
	C851.636841,352.051025 850.082031,352.124176 848.637756,351.841949 
	C841.492615,350.445374 836.782349,351.991608 834.809265,360.132538 
	C833.469788,365.659180 828.268494,362.460327 823.436768,363.037445 
	C827.080688,352.883331 830.410278,343.605164 833.878296,333.962524 
M842.318115,339.973297 
	C845.591492,343.908020 849.398621,341.254395 853.667725,341.639252 
	C851.967529,335.756226 850.546204,330.802124 847.960205,325.541687 
	C844.951050,330.190796 844.255859,334.977142 842.318115,339.973297 
z"/>
<path fill="#000000" opacity="1.000000" stroke="none" 
	d="
M668.793091,352.322662 
	C667.965149,353.926697 667.322449,355.275940 666.833984,356.678864 
	C664.381348,363.722626 663.095520,364.372528 655.375549,362.354126 
	C654.527893,361.015869 655.221863,359.769836 655.662598,358.548401 
	C660.740479,344.477936 665.930725,330.446991 670.872559,316.329071 
	C672.118286,312.770233 674.037903,311.389069 677.809387,311.562042 
	C681.427979,311.727997 684.344788,311.569580 685.910828,316.088043 
	C690.915344,330.527832 696.434204,344.789215 701.729248,359.128815 
	C702.060547,360.026001 702.174500,361.003448 702.380188,361.902466 
	C695.558289,364.746307 692.436157,363.714752 690.555176,357.396393 
	C689.240662,352.980835 687.106995,351.208710 682.377930,351.774933 
	C677.990051,352.300323 673.473572,350.570435 668.793091,352.322662 
M674.976746,333.346680 
	C674.249634,335.969238 672.639832,338.408112 673.123901,341.746002 
	C676.808655,341.754913 680.320801,342.701324 684.284729,340.991272 
	C682.370789,335.638733 681.275146,330.265778 678.013855,324.940186 
	C676.908447,327.983124 676.065979,330.302307 674.976746,333.346680 
z"/>
<path fill="#000000" opacity="1.000000" stroke="none" 
	d="
M732.386719,361.970337 
	C736.912903,345.481964 743.204590,329.901611 748.863220,314.101868 
	C750.358459,309.926819 754.313660,312.152679 757.190979,311.676514 
	C760.232300,311.173279 761.657837,312.933136 762.626526,315.581055 
	C767.825500,329.791565 773.114746,343.969055 778.356873,358.163849 
	C778.810608,359.392578 779.380859,360.633209 778.966309,361.966309 
	C772.386658,364.698212 769.497498,363.807800 767.650513,357.512543 
	C766.279907,352.841034 763.730103,351.028992 759.105347,351.431671 
	C757.454224,351.575439 755.778320,351.424286 754.113770,351.425629 
	C745.993530,351.432281 745.993530,351.434418 743.125549,359.042145 
	C741.411255,363.589478 739.505981,364.183167 732.386719,361.970337 
M754.987244,326.619324 
	C752.530090,331.231659 750.934631,336.116180 749.647705,341.471619 
	C753.851196,342.047760 757.348938,342.473938 761.420044,341.063843 
	C759.523193,335.963776 758.725464,330.765961 754.987244,326.619324 
z"/>
<path fill="#000000" opacity="1.000000" stroke="none" 
	d="
M896.103821,363.329926 
	C887.453613,364.140808 880.070923,362.683868 875.002808,355.321899 
	C873.547852,353.208466 871.965088,351.080597 875.299561,349.092285 
	C877.886658,347.549713 880.272156,345.333954 882.761230,349.325043 
	C884.859802,352.689911 888.400879,353.996460 892.076355,354.505951 
	C895.273193,354.949127 898.179016,353.793732 899.334290,350.508667 
	C900.567871,347.001007 898.592102,344.670135 895.533630,343.412231 
	C892.469849,342.152161 889.171326,341.467438 886.093750,340.235565 
	C876.500549,336.395721 872.506653,326.839233 876.819885,318.351074 
	C879.979309,312.133514 888.765930,308.975525 897.449280,310.996246 
	C901.251953,311.881195 904.673767,313.465332 907.187073,316.637512 
	C910.699951,321.071320 910.505615,322.141052 905.482300,324.890198 
	C904.625977,325.358826 903.692627,325.686554 902.691284,326.124695 
	C900.090271,323.731567 898.347290,320.483185 894.501709,319.810150 
	C890.607544,319.128601 887.168396,319.896881 885.792786,323.668030 
	C884.376953,327.549286 887.645630,329.360657 890.622620,330.597443 
	C893.214966,331.674408 896.068420,332.108337 898.703064,333.100891 
	C906.716797,336.119904 910.708191,341.766968 910.289856,349.220154 
	C909.873108,356.644348 905.376099,361.240387 896.103821,363.329926 
z"/>
<path fill="#000000" opacity="1.000000" stroke="none" 
	d="
M946.251465,338.824280 
	C945.929688,342.054657 943.843689,342.119995 941.800232,342.152313 
	C938.805786,342.199677 935.791992,342.386932 932.819397,342.131348 
	C928.311218,341.743683 927.479065,344.374054 927.467407,347.963287 
	C927.455566,351.620209 928.441101,354.029327 932.898499,353.704163 
	C937.035522,353.402344 941.214905,353.733429 945.372681,353.645752 
	C948.639587,353.576843 949.206421,355.519928 949.169434,358.164764 
	C949.132019,360.843842 948.943542,363.224365 945.297485,363.193726 
	C937.311218,363.126587 929.323975,363.150330 921.337219,363.174225 
	C918.836182,363.181702 917.709290,361.995697 917.711792,359.521851 
	C917.726868,344.712830 917.725525,329.903809 917.703857,315.094788 
	C917.700562,312.879425 918.574280,311.676025 920.923584,311.683075 
	C928.910156,311.707092 936.897217,311.721771 944.883545,311.666412 
	C947.517395,311.648132 948.375854,312.985992 948.305847,315.394440 
	C948.233948,317.869202 948.783386,320.779449 945.100830,320.990082 
	C940.786743,321.236847 936.452576,321.315155 932.132629,321.218842 
	C928.686890,321.141998 927.242371,322.430298 927.645569,325.969421 
	C928.003845,329.114410 926.717651,333.094177 932.268188,332.706116 
	C935.082947,332.509338 937.944214,332.896301 940.747192,332.629120 
	C945.188293,332.205841 946.944641,334.034210 946.251465,338.824280 
z"/>
<path fill="#000000" opacity="1.000000" stroke="none" 
	d="
M552.354614,351.974518 
	C552.353271,354.132416 552.232361,355.804718 552.373962,357.454498 
	C552.696655,361.213440 551.776611,363.293762 547.287354,363.257690 
	C542.843384,363.221985 542.594543,360.882172 542.623962,357.532349 
	C542.714539,347.228271 542.513306,336.920166 542.714417,326.619263 
	C542.795837,322.446320 541.219055,320.806580 537.153076,321.257538 
	C535.839661,321.403198 534.490601,321.199738 533.167786,321.294678 
	C529.786804,321.537354 527.865051,320.557831 527.902100,316.628876 
	C527.939209,312.692261 529.558044,311.504761 533.348877,311.584595 
	C542.984680,311.787720 552.629395,311.762756 562.266663,311.598236 
	C565.795288,311.537994 566.993896,312.981384 566.909302,316.311462 
	C566.830627,319.408447 566.035278,321.188293 562.388245,321.339020 
	C552.349792,321.753937 552.354126,321.895752 552.351440,332.032318 
	C552.349670,338.514435 552.353149,344.996582 552.354614,351.974518 
z"/>
<path fill="#000000" opacity="1.000000" stroke="none" 
	d="
M699.547729,312.056824 
	C710.934937,311.795959 721.911987,311.796875 732.886169,311.622192 
	C736.267212,311.568359 737.168762,313.186707 737.145142,316.208252 
	C737.121277,319.260681 736.537231,321.161224 732.795105,321.337463 
	C722.345520,321.829590 722.351562,321.973297 722.351257,332.630707 
	C722.351013,340.782654 722.300171,348.935120 722.379578,357.086304 
	C722.412476,360.468689 722.524109,363.214203 717.649048,363.261627 
	C712.536560,363.311401 712.593079,360.440552 712.624756,356.845032 
	C712.714050,346.697449 712.518799,336.545654 712.731934,326.401764 
	C712.814087,322.491425 711.501221,320.793884 707.576904,321.261780 
	C706.756958,321.359589 705.914978,321.273346 705.083130,321.270325 
	C697.562744,321.243164 696.481873,319.603729 699.547729,312.056824 
z"/>
<path fill="#000000" opacity="1.000000" stroke="none" 
	d="
M583.348755,328.002625 
	C583.346252,338.317352 583.216614,348.135315 583.404602,357.947144 
	C583.477295,361.739655 582.393616,363.344574 578.335999,363.240173 
	C574.701172,363.146667 572.753357,362.354004 572.797852,358.240967 
	C572.948853,344.267944 572.971375,330.291718 572.843750,316.318542 
	C572.804260,312.003448 575.121521,311.644897 578.556091,311.568695 
	C582.287659,311.485870 583.611267,312.887207 583.391113,316.526276 
	C583.170532,320.172821 583.346436,323.843353 583.348755,328.002625 
z"/>
</svg>